  0
SECTION
  2
HEADER
  9
$ACADVER
  1
AC1024
  0
ENDSEC
  0
SECTION
  2
TABLES
  0
TABLE
  2
LAYER
  70
1
  0
LAYER
  2
WALLS
  62
7
  0
LAYER
  2
FIXTURES
  62
3
  0
ENDTAB
  0
ENDSEC
  0
SECTION
  2
ENTITIES
  0
LWPOLYLINE
  8
WALLS
  90
4
  70
1
  10
0.0
  20
0.0
  10
10.0
  20
0.0
  10
10.0
  20
11.5
  10
0.0
  20
11.5
  0
LWPOLYLINE
  8
WALLS
  90
3
  70
0
  10
0.0
  20
5.0
  10
3.5
  20
5.0
  10
3.5
  20
0.0
  0
ARC
  8
WALLS
  10
7.0
  20
1.0
  40
3.0
  50
0.0
  51
90.0
  0
ENDSEC
  0
EOF
