0
SECTION
2
ENTITIES
0
CIRCLE
8
01_FOOTINGS
10
0.0
20
0.0
30
0.0
40
6.0
0
CIRCLE
8
01_FOOTINGS
10
72.0
20
0.0
30
0.0
40
6.0
0
CIRCLE
8
01_FOOTINGS
10
144.0
20
0.0
30
0.0
40
6.0
0
CIRCLE
8
01_FOOTINGS
10
216.0
20
0.0
30
0.0
40
6.0
0
CIRCLE
8
01_FOOTINGS
10
0.0
20
90.0
30
0.0
40
6.0
0
CIRCLE
8
01_FOOTINGS
10
72.0
20
90.0
30
0.0
40
6.0
0
CIRCLE
8
01_FOOTINGS
10
144.0
20
90.0
30
0.0
40
6.0
0
CIRCLE
8
01_FOOTINGS
10
216.0
20
90.0
30
0.0
40
6.0
0
CIRCLE
8
01_FOOTINGS
10
0.0
20
180.0
30
0.0
40
6.0
0
CIRCLE
8
01_FOOTINGS
10
72.0
20
180.0
30
0.0
40
6.0
0
CIRCLE
8
01_FOOTINGS
10
144.0
20
180.0
30
0.0
40
6.0
0
CIRCLE
8
01_FOOTINGS
10
216.0
20
180.0
30
0.0
40
6.0
0
LINE
8
03_BEAMS_MAIN
10
0.0
20
0.0
30
0.0
11
216.0
21
0.0
31
0.0
0
LINE
8
03_BEAMS_MAIN
10
0.0
20
90.0
30
0.0
11
216.0
21
90.0
31
0.0
0
LINE
8
03_BEAMS_MAIN
10
0.0
20
180.0
30
0.0
11
216.0
21
180.0
31
0.0
0
LINE
8
03_BEAMS_MAIN
10
0.0
20
0.0
30
0.0
11
0.0
21
180.0
31
0.0
0
LINE
8
03_BEAMS_MAIN
10
216.0
20
0.0
30
0.0
11
216.0
21
180.0
31
0.0
0
ENDSEC
0
EOF
