0
SECTION
2
HEADER
0
ENDSEC
0
SECTION
2
TABLES
0
TABLE
2
LAYER
70
5
0
LAYER
2
01_FOOTINGS
70
0
62
1
0
LAYER
2
02_COLUMNS
70
0
62
5
0
LAYER
2
03_BEAMS_MAIN
70
0
62
3
0
LAYER
2
04_REBAR_STEEL
70
0
62
2
0
LAYER
2
05_DIMENSIONS
70
0
62
7
0
ENDTAB
0
ENDSEC
0
SECTION
2
ENTITIES
0
CIRCLE
8
01_FOOTINGS
10
0.0
20
0.0
30
0.0
40
6.0
0
CIRCLE
8
01_FOOTINGS
10
0.0
20
90.0
30
0.0
40
6.0
0
CIRCLE
8
01_FOOTINGS
10
0.0
20
180.0
30
0.0
40
6.0
0
CIRCLE
8
01_FOOTINGS
10
72.0
20
0.0
30
0.0
40
6.0
0
CIRCLE
8
01_FOOTINGS
10
72.0
20
90.0
30
0.0
40
6.0
0
CIRCLE
8
01_FOOTINGS
10
72.0
20
180.0
30
0.0
40
6.0
0
CIRCLE
8
01_FOOTINGS
10
144.0
20
0.0
30
0.0
40
6.0
0
CIRCLE
8
01_FOOTINGS
10
144.0
20
90.0
30
0.0
40
6.0
0
CIRCLE
8
01_FOOTINGS
10
144.0
20
180.0
30
0.0
40
6.0
0
CIRCLE
8
01_FOOTINGS
10
216.0
20
0.0
30
0.0
40
6.0
0
CIRCLE
8
01_FOOTINGS
10
216.0
20
90.0
30
0.0
40
6.0
0
CIRCLE
8
01_FOOTINGS
10
216.0
20
180.0
30
0.0
40
6.0
0
0
LINE
8
03_BEAMS_MAIN
10
0.0
20
0.0
30
0.0
11
216.0
21
0.0
31
0.0
0
LINE
8
03_BEAMS_MAIN
10
0.0
20
90.0
30
0.0
11
216.0
21
90.0
31
0.0
0
LINE
8
03_BEAMS_MAIN
10
0.0
20
180.0
30
0.0
11
216.0
21
180.0
31
0.0
0
LINE
8
03_BEAMS_MAIN
10
0.0
20
0.0
30
0.0
11
0.0
21
180.0
31
0.0
0
LINE
8
03_BEAMS_MAIN
10
216.0
20
0.0
30
0.0
11
216.0
21
180.0
31
0.0
0
CIRCLE
8
01_FOOTINGS
10
0.0
20
300.0
30
0.0
40
6.0
0
CIRCLE
8
01_FOOTINGS
10
0.0
20
408.0
30
0.0
40
6.0
0
CIRCLE
8
01_FOOTINGS
10
0.0
20
516.0
30
0.0
40
6.0
0
CIRCLE
8
01_FOOTINGS
10
72.0
20
300.0
30
0.0
40
6.0
0
CIRCLE
8
01_FOOTINGS
10
72.0
20
408.0
30
0.0
40
6.0
0
CIRCLE
8
01_FOOTINGS
10
72.0
20
516.0
30
0.0
40
6.0
0
CIRCLE
8
01_FOOTINGS
10
144.0
20
300.0
30
0.0
40
6.0
0
CIRCLE
8
01_FOOTINGS
10
144.0
20
408.0
30
0.0
40
6.0
0
CIRCLE
8
01_FOOTINGS
10
144.0
20
516.0
30
0.0
40
6.0
0
CIRCLE
8
01_FOOTINGS
10
216.0
20
300.0
30
0.0
40
6.0
0
CIRCLE
8
01_FOOTINGS
10
216.0
20
408.0
30
0.0
40
6.0
0
CIRCLE
8
01_FOOTINGS
10
216.0
20
516.0
30
0.0
40
6.0
0
CIRCLE
8
01_FOOTINGS
10
288.0
20
300.0
30
0.0
40
6.0
0
CIRCLE
8
01_FOOTINGS
10
288.0
20
408.0
30
0.0
40
6.0
0
CIRCLE
8
01_FOOTINGS
10
288.0
20
516.0
30
0.0
40
6.0
0
CIRCLE
8
01_FOOTINGS
10
360.0
20
300.0
30
0.0
40
6.0
0
CIRCLE
8
01_FOOTINGS
10
360.0
20
408.0
30
0.0
40
6.0
0
CIRCLE
8
01_FOOTINGS
10
360.0
20
516.0
30
0.0
40
6.0
0
0
LINE
8
03_BEAMS_MAIN
10
0.0
20
300.0
30
0.0
11
360.0
21
300.0
31
0.0
0
LINE
8
03_BEAMS_MAIN
10
0.0
20
408.0
30
0.0
11
360.0
21
408.0
31
0.0
0
LINE
8
03_BEAMS_MAIN
10
0.0
20
516.0
30
0.0
11
360.0
21
516.0
31
0.0
0
LINE
8
03_BEAMS_MAIN
10
0.0
20
300.0
30
0.0
11
0.0
21
516.0
31
0.0
0
LINE
8
03_BEAMS_MAIN
10
360.0
20
300.0
30
0.0
11
360.0
21
516.0
31
0.0
0
0
LINE
8
01_FOOTINGS
10
500.0
20
0.0
30
0.0
11
524.0
21
0.0
31
0.0
0
LINE
8
01_FOOTINGS
10
524.0
20
0.0
30
0.0
11
524.0
21
12.0
31
0.0
0
LINE
8
01_FOOTINGS
10
524.0
20
12.0
30
0.0
11
500.0
21
12.0
31
0.0
0
LINE
8
01_FOOTINGS
10
500.0
20
12.0
30
0.0
11
500.0
21
0.0
31
0.0
0
LINE
8
02_COLUMNS
10
506.0
20
12.0
30
0.0
11
518.0
21
12.0
31
0.0
0
LINE
8
02_COLUMNS
10
518.0
20
12.0
30
0.0
11
518.0
21
48.0
31
0.0
0
LINE
8
02_COLUMNS
10
518.0
20
48.0
30
0.0
11
506.0
21
48.0
31
0.0
0
LINE
8
02_COLUMNS
10
506.0
20
48.0
30
0.0
11
506.0
21
12.0
31
0.0
0
LINE
8
04_REBAR_STEEL
10
508.0
20
3.0
30
0.0
11
508.0
21
46.0
31
0.0
0
LINE
8
04_REBAR_STEEL
10
516.0
20
3.0
30
0.0
11
516.0
21
46.0
31
0.0
0
LINE
8
04_REBAR_STEEL
10
503.0
20
3.0
30
0.0
11
521.0
21
3.0
31
0.0
0
TEXT
8
05_DIMENSIONS
10
0.0
20
-40.0
30
0.0
40
12.0
1
18x15 FOUNDATION SCHEMATIC
0
TEXT
8
05_DIMENSIONS
10
0.0
20
260.0
30
0.0
40
12.0
1
18x30 FOUNDATION SCHEMATIC
0
TEXT
8
05_DIMENSIONS
10
500.0
20
-40.0
30
0.0
40
12.0
1
RCC SECTION & CONNECTION DETAILS
0
TEXT
8
05_DIMENSIONS
10
500.0
20
220.0
30
0.0
40
8.0
1
 1. Isolated Footing & Pier
   0
   TEXT
   8
   05_DIMENSIONS
   10
   500.0
   20
   200.0
   30
   0.0
   40
   8.0
   1
 * Concrete Pad: 24W x 24L x 12D
   0
   TEXT
   8
   05_DIMENSIONS
   10
   500.0
   20
   180.0
   30
   0.0
   40
   8.0
   1
 * Pad Reinforcement: 12mm rebar grid at 6 O.C.
   0
   TEXT
   8
   05_DIMENSIONS
   10
   500.0
   20
   160.0
   30
   0.0
   40
   8.0
   1
 * Column/Pier: 12W x 12L
   0
   TEXT
   8
   05_DIMENSIONS
   10
   500.0
   20
   140.0
   30
   0.0
   40
   8.0
   1
 * Column Reinforcement: 4x 16mm longitudinal main bars
   0
   TEXT
   8
   05_DIMENSIONS
   10
   500.0
   20
   100.0
   30
   0.0
   40
   8.0
   1
 2. Structural Capacities
   0
   TEXT
   8
   05_DIMENSIONS
   10
   500.0
   20
   80.0
   30
   0.0
   40
   8.0
   1
 * Floor Joists: 2x10 lumber at 16 O.C. spacing
   0
   TEXT
   8
   05_DIMENSIONS
   10
   500.0
   20
   60.0
   30
   0.0
   40
   8.0
   1
 * Maximum Rebar Diameter: T/8
   0
   TEXT
   8
   05_DIMENSIONS
   10
   500.0
   20
   40.0
   30
   0.0
   40
   8.0
   1
 * Beam-to-Column Moment Connection: Tension bars cross L-Joint
   0
   ENDSEC
   0
   EOF
