Copy Of Ledger: 2000 Line DXF Output
0
SECTION
2
ENTITIES
0
CIRCLE
8
01_FOOTINGS
10
0.0
20
0.0
30
0.0
40
6.0
0
CIRCLE
8
01_FOOTINGS
10
72.0
20
0.0
30
0.0
40
6.0
0
CIRCLE
8
01_FOOTINGS
10
144.0
20
0.0
30
0.0
40
6.0
0
CIRCLE
8
01_FOOTINGS
10
216.0
20
0.0
30
0.0
40
6.0
0
CIRCLE
8
01_FOOTINGS
10
0.0
20
90.0
30
0.0
40
6.0
0
CIRCLE
8
01_FOOTINGS
10
72.0
20
90.0
30
0.0
40
6.0
0
CIRCLE
8
01_FOOTINGS
10
144.0
20
90.0
30
0.0
40
6.0
0
CIRCLE
8
01_FOOTINGS
10
216.0
20
90.0
30
0.0
40
6.0
0
CIRCLE
8
01_FOOTINGS
10
0.0
20
180.0
30
0.0
40
6.0
0
CIRCLE
8
01_FOOTINGS
10
72.0
20
180.0
30
0.0
40
6.0
0
CIRCLE
8
01_FOOTINGS
10
144.0
20
180.0
30
0.0
40
6.0
0
CIRCLE
8
01_FOOTINGS
10
216.0
20
180.0
30
0.0
40
6.0
0
LINE
8
03_BEAMS_MAIN
10
0.0
20
0.0
30
0.0
11
216.0
21
0.0
31
0.0
0
LINE
8
03_BEAMS_MAIN
10
0.0
20
90.0
30
0.0
11
216.0
21
90.0
31
0.0
0
LINE
8
03_BEAMS_MAIN
10
0.0
20
180.0
30
0.0
11
216.0
21
180.0
31
0.0
0
LINE
8
03_BEAMS_MAIN
10
0.0
20
0.0
30
0.0
11
0.0
21
180.0
31
0.0
0
LINE
8
03_BEAMS_MAIN
10
216.0
20
0.0
30
0.0
11
216.0
21
180.0
31
0.0
0
POINT
8
PAD
10
1.0
20
0.0
30
0.0
0
POINT
8
PAD
10
2.0
20
0.0
30
0.0
0
POINT
8
PAD
10
3.0
20
0.0
30
0.0
0
POINT
8
PAD
10
4.0
20
0.0
30
0.0
0
POINT
8
PAD
10
5.0
20
0.0
30
0.0
0
POINT
8
PAD
10
6.0
20
0.0
30
0.0
0
POINT
8
PAD
10
7.0
20
0.0
30
0.0
0
POINT
8
PAD
10
8.0
20
0.0
30
0.0
0
POINT
8
PAD
10
9.0
20
0.0
30
0.0
0
POINT
8
PAD
10
10.0
20
0.0
30
0.0
0
POINT
8
PAD
10
11.0
20
0.0
30
0.0
0
POINT
8
PAD
10
12.0
20
0.0
30
0.0
0
POINT
8
PAD
10
13.0
20
0.0
30
0.0
0
POINT
8
PAD
10
14.0
20
0.0
30
0.0
0
POINT
8
PAD
10
15.0
20
0.0
30
0.0
0
POINT
8
PAD
10
16.0
20
0.0
30
0.0
0
POINT
8
PAD
10
17.0
20
0.0
30
0.0
0
POINT
8
PAD
10
18.0
20
0.0
30
0.0
0
POINT
8
PAD
10
19.0
20
0.0
30
0.0
0
POINT
8
PAD
10
20.0
20
0.0
30
0.0
0
POINT
8
PAD
10
21.0
20
0.0
30
0.0
0
POINT
8
PAD
10
22.0
20
0.0
30
0.0
0
POINT
8
PAD
10
23.0
20
0.0
30
0.0
0
POINT
8
PAD
10
24.0
20
0.0
30
0.0
0
POINT
8
PAD
10
25.0
20
0.0
30
0.0
0
POINT
8
PAD
10
26.0
20
0.0
30
0.0
0
POINT
8
PAD
10
27.0
20
0.0
30
0.0
0
POINT
8
PAD
10
28.0
20
0.0
30
0.0
0
POINT
8
PAD
10
29.0
20
0.0
30
0.0
0
POINT
8
PAD
10
30.0
20
0.0
30
0.0
0
POINT
8
PAD
10
31.0
20
0.0
30
0.0
0
POINT
8
PAD
10
32.0
20
0.0
30
0.0
0
POINT
8
PAD
10
33.0
20
0.0
30
0.0
0
POINT
8
PAD
10
34.0
20
0.0
30
0.0
0
POINT
8
PAD
10
35.0
20
0.0
30
0.0
0
POINT
8
PAD
10
36.0
20
0.0
30
0.0
0
POINT
8
PAD
10
37.0
20
0.0
30
0.0
0
POINT
8
PAD
10
38.0
20
0.0
30
0.0
0
POINT
8
PAD
10
39.0
20
0.0
30
0.0
0
POINT
8
PAD
10
40.0
20
0.0
30
0.0
0
POINT
8
PAD
10
41.0
20
0.0
30
0.0
0
POINT
8
PAD
10
42.0
20
0.0
30
0.0
0
POINT
8
PAD
10
43.0
20
0.0
30
0.0
0
POINT
8
PAD
10
44.0
20
0.0
30
0.0
0
POINT
8
PAD
10
45.0
20
0.0
30
0.0
0
POINT
8
PAD
10
46.0
20
0.0
30
0.0
0
POINT
8
PAD
10
47.0
20
0.0
30
0.0
0
POINT
8
PAD
10
48.0
20
0.0
30
0.0
0
POINT
8
PAD
10
49.0
20
0.0
30
0.0
0
POINT
8
PAD
10
50.0
20
0.0
30
0.0
0
POINT
8
PAD
10
51.0
20
0.0
30
0.0
0
POINT
8
PAD
10
52.0
20
0.0
30
0.0
0
POINT
8
PAD
10
53.0
20
0.0
30
0.0
0
POINT
8
PAD
10
54.0
20
0.0
30
0.0
0
POINT
8
PAD
10
55.0
20
0.0
30
0.0
0
POINT
8
PAD
10
56.0
20
0.0
30
0.0
0
POINT
8
PAD
10
57.0
20
0.0
30
0.0
0
POINT
8
PAD
10
58.0
20
0.0
30
0.0
0
POINT
8
PAD
10
59.0
20
0.0
30
0.0
0
POINT
8
PAD
10
60.0
20
0.0
30
0.0
0
POINT
8
PAD
10
61.0
20
0.0
30
0.0
0
POINT
8
PAD
10
62.0
20
0.0
30
0.0
0
POINT
8
PAD
10
63.0
20
0.0
30
0.0
0
POINT
8
PAD
10
64.0
20
0.0
30
0.0
0
POINT
8
PAD
10
65.0
20
0.0
30
0.0
0
POINT
8
PAD
10
66.0
20
0.0
30
0.0
0
POINT
8
PAD
10
67.0
20
0.0
30
0.0
0
POINT
8
PAD
10
68.0
20
0.0
30
0.0
0
POINT
8
PAD
10
69.0
20
0.0
30
0.0
0
POINT
8
PAD
10
70.0
20
0.0
30
0.0
0
POINT
8
PAD
10
71.0
20
0.0
30
0.0
0
POINT
8
PAD
10
72.0
20
0.0
30
0.0
0
POINT
8
PAD
10
73.0
20
0.0
30
0.0
0
POINT
8
PAD
10
74.0
20
0.0
30
0.0
0
POINT
8
PAD
10
75.0
20
0.0
30
0.0
0
POINT
8
PAD
10
76.0
20
0.0
30
0.0
0
POINT
8
PAD
10
77.0
20
0.0
30
0.0
0
POINT
8
PAD
10
78.0
20
0.0
30
0.0
0
POINT
8
PAD
10
79.0
20
0.0
30
0.0
0
POINT
8
PAD
10
80.0
20
0.0
30
0.0
0
POINT
8
PAD
10
81.0
20
0.0
30
0.0
0
POINT
8
PAD
10
82.0
20
0.0
30
0.0
0
POINT
8
PAD
10
83.0
20
0.0
30
0.0
0
POINT
8
PAD
10
84.0
20
0.0
30
0.0
0
POINT
8
PAD
10
85.0
20
0.0
30
0.0
0
POINT
8
PAD
10
86.0
20
0.0
30
0.0
0
POINT
8
PAD
10
87.0
20
0.0
30
0.0
0
POINT
8
PAD
10
88.0
20
0.0
30
0.0
0
POINT
8
PAD
10
89.0
20
0.0
30
0.0
0
POINT
8
PAD
10
90.0
20
0.0
30
0.0
0
POINT
8
PAD
10
91.0
20
0.0
30
0.0
0
POINT
8
PAD
10
92.0
20
0.0
30
0.0
0
POINT
8
PAD
10
93.0
20
0.0
30
0.0
0
POINT
8
PAD
10
94.0
20
0.0
30
0.0
0
POINT
8
PAD
10
95.0
20
0.0
30
0.0
0
POINT
8
PAD
10
96.0
20
0.0
30
0.0
0
POINT
8
PAD
10
97.0
20
0.0
30
0.0
0
POINT
8
PAD
10
98.0
20
0.0
30
0.0
0
POINT
8
PAD
10
99.0
20
0.0
30
0.0
0
POINT
8
PAD
10
100.0
20
0.0
30
0.0
0
POINT
8
PAD
10
101.0
20
0.0
30
0.0
0
POINT
8
PAD
10
102.0
20
0.0
30
0.0
0
POINT
8
PAD
10
103.0
20
0.0
30
0.0
0
POINT
8
PAD
10
104.0
20
0.0
30
0.0
0
POINT
8
PAD
10
105.0
20
0.0
30
0.0
0
POINT
8
PAD
10
106.0
20
0.0
30
0.0
0
POINT
8
PAD
10
107.0
20
0.0
30
0.0
0
POINT
8
PAD
10
108.0
20
0.0
30
0.0
0
POINT
8
PAD
10
109.0
20
0.0
30
0.0
0
POINT
8
PAD
10
110.0
20
0.0
30
0.0
0
POINT
8
PAD
10
111.0
20
0.0
30
0.0
0
POINT
8
PAD
10
112.0
20
0.0
30
0.0
0
POINT
8
PAD
10
113.0
20
0.0
30
0.0
0
POINT
8
PAD
10
114.0
20
0.0
30
0.0
0
POINT
8
PAD
10
115.0
20
0.0
30
0.0
0
POINT
8
PAD
10
116.0
20
0.0
30
0.0
0
POINT
8
PAD
10
117.0
20
0.0
30
0.0
0
POINT
8
PAD
10
118.0
20
0.0
30
0.0
0
POINT
8
PAD
10
119.0
20
0.0
30
0.0
0
POINT
8
PAD
10
120.0
20
0.0
30
0.0
0
POINT
8
PAD
10
121.0
20
0.0
30
0.0
0
POINT
8
PAD
10
122.0
20
0.0
30
0.0
0
POINT
8
PAD
10
123.0
20
0.0
30
0.0
0
POINT
8
PAD
10
124.0
20
0.0
30
0.0
0
POINT
8
PAD
10
125.0
20
0.0
30
0.0
0
POINT
8
PAD
10
126.0
20
0.0
30
0.0
0
POINT
8
PAD
10
127.0
20
0.0
30
0.0
0
POINT
8
PAD
10
128.0
20
0.0
30
0.0
0
POINT
8
PAD
10
129.0
20
0.0
30
0.0
0
POINT
8
PAD
10
130.0
20
0.0
30
0.0
0
POINT
8
PAD
10
131.0
20
0.0
30
0.0
0
POINT
8
PAD
10
132.0
20
0.0
30
0.0
0
POINT
8
PAD
10
133.0
20
0.0
30
0.0
0
POINT
8
PAD
10
134.0
20
0.0
30
0.0
0
POINT
8
PAD
10
135.0
20
0.0
30
0.0
0
POINT
8
PAD
10
136.0
20
0.0
30
0.0
0
POINT
8
PAD
10
137.0
20
0.0
30
0.0
0
POINT
8
PAD
10
138.0
20
0.0
30
0.0
0
POINT
8
PAD
10
139.0
20
0.0
30
0.0
0
POINT
8
PAD
10
140.0
20
0.0
30
0.0
0
POINT
8
PAD
10
141.0
20
0.0
30
0.0
0
POINT
8
PAD
10
142.0
20
0.0
30
0.0
0
POINT
8
PAD
10
143.0
20
0.0
30
0.0
0
POINT
8
PAD
10
144.0
20
0.0
30
0.0
0
POINT
8
PAD
10
145.0
20
0.0
30
0.0
0
POINT
8
PAD
10
146.0
20
0.0
30
0.0
0
POINT
8
PAD
10
147.0
20
0.0
30
0.0
0
POINT
8
PAD
10
148.0
20
0.0
30
0.0
0
POINT
8
PAD
10
149.0
20
0.0
30
0.0
0
POINT
8
PAD
10
150.0
20
0.0
30
0.0
0
POINT
8
PAD
10
151.0
20
0.0
30
0.0
0
POINT
8
PAD
10
152.0
20
0.0
30
0.0
0
POINT
8
PAD
10
153.0
20
0.0
30
0.0
0
POINT
8
PAD
10
154.0
20
0.0
30
0.0
0
POINT
8
PAD
10
155.0
20
0.0
30
0.0
0
POINT
8
PAD
10
156.0
20
0.0
30
0.0
0
POINT
8
PAD
10
157.0
20
0.0
30
0.0
0
POINT
8
PAD
10
158.0
20
0.0
30
0.0
0
POINT
8
PAD
10
159.0
20
0.0
30
0.0
0
POINT
8
PAD
10
160.0
20
0.0
30
0.0
0
POINT
8
PAD
10
161.0
20
0.0
30
0.0
0
POINT
8
PAD
10
162.0
20
0.0
30
0.0
0
POINT
8
PAD
10
163.0
20
0.0
30
0.0
0
POINT
8
PAD
10
164.0
20
0.0
30
0.0
0
POINT
8
PAD
10
165.0
20
0.0
30
0.0
0
POINT
8
PAD
10
166.0
20
0.0
30
0.0
0
POINT
8
PAD
10
167.0
20
0.0
30
0.0
0
POINT
8
PAD
10
168.0
20
0.0
30
0.0
0
POINT
8
PAD
10
169.0
20
0.0
30
0.0
0
POINT
8
PAD
10
170.0
20
0.0
30
0.0
0
POINT
8
PAD
10
171.0
20
0.0
30
0.0
0
POINT
8
PAD
10
172.0
20
0.0
30
0.0
0
POINT
8
PAD
10
173.0
20
0.0
30
0.0
0
POINT
8
PAD
10
174.0
20
0.0
30
0.0
0
POINT
8
PAD
10
175.0
20
0.0
30
0.0
0
POINT
8
PAD
10
176.0
20
0.0
30
0.0
999
PAD1
999
PAD2
999
PAD3
999
PAD4
0
ENDSEC
0
EOF
